<svg xmlns="http://www.w3.org/2000/svg" viewBox="0 0 128 128">
  <defs>
    <linearGradient id="g" x1="0" y1="0" x2="1" y2="1">
      <stop offset="0" stop-color="#38bdf8"/>
      <stop offset="1" stop-color="#0ea5e9"/>
    </linearGradient>
  </defs>
  <rect width="128" height="128" rx="24" fill="#0b1220"/>
  <path d="M24 64c0-22.1 17.9-40 40-40s40 17.9 40 40-17.9 40-40 40S24 86.1 24 64z" fill="url(#g)" opacity=".2"/>
  <path d="M40 66c0-13.3 10.7-24 24-24 8.2 0 15.5 4.1 19.9 10.4l-9.1 6c-2.3-3.6-6.4-6-11.1-6-7.2 0-13 5.8-13 13s5.8 13 13 13c4.7 0 8.8-2.4 11.1-6l9.1 6C79.5 85.9 72.2 90 64 90 50.7 90 40 79.3 40 66z" fill="url(#g)"/>
</svg>
